# xmcd
#
# Track frame offsets:
#	150
#	16767
#	50797
#	64091
#	77198
#	92995
#	105824
#	125839
#	136601
#	158279
#	171826
#	192870
#	212408
#	229362
#	248292
#	260528
#	280254
#	300361
#	324614
#
# Disc length: 4511 seconds
#
# Revision: 1
# Processed by: cddbd v1.5.2PL0 Copyright (c) Steve Scherf et al.
# Submitted via: EasyCDDAExtractor 15.3.0.1
#
DISCID=f4119d13
DTITLE=Various Artist - More Miles Than Money - The soundtrack to Garth Cartwright's 
DTITLE=book CD2 [2010]
DYEAR=2010
DGENRE=Blues
TTITLE0=Johnny Farmer and Organized Noize - Death Letter
TTITLE1=Charles Wright - A Mother's Love
TTITLE2=Sonny Boy Williamson - Mighty Long Time
TTITLE3=O.V. Wright With The Keys - That's How Strong My Love Is
TTITLE4=The Goodees - Didn't Know Love Was So Good
TTITLE5=Lydia Mendoza - Mi Problema
TTITLE6=Townes Van Zandt - Flying Shoes
TTITLE7=Lefty Frizzell - How Far Down Can I Go
TTITLE8=Giant Sand - Astonished (In Memphis)
TTITLE9=Radmilla Cody - Corn Grinding Song
TTITLE10=Diana Jones - Pony
TTITLE11=R.L. Burnside - Over The Hill
TTITLE12=The Impressions - I Gotta Keep On Moving
TTITLE13=Honeyboy Edwards and Carey Bell - Every Now And Then
TTITLE14=Kell Robertson - Texas Hood Song
TTITLE15=Junior Kimbrough - Sad Days, Lonely Nights
TTITLE16=T-Model Ford and Shrive Alive - If I Had Wings
TTITLE17=Hound Dog Taylor - Sitting At Home Alone
TTITLE18=Luke The Drifter (Hank Williams) - Ramblin' Man
EXTD=YEAR: 2010
EXTT0=
EXTT1=
EXTT2=
EXTT3=
EXTT4=
EXTT5=
EXTT6=
EXTT7=
EXTT8=
EXTT9=
EXTT10=
EXTT11=
EXTT12=
EXTT13=
EXTT14=
EXTT15=
EXTT16=
EXTT17=
EXTT18=
PLAYORDER=
